<?xml version="1.0" encoding="UTF-8"?>
<svg xmlns="http://www.w3.org/2000/svg" xmlns:xlink="http://www.w3.org/1999/xlink" viewBox="0 0 80 80" width="80px" height="80px">
<g id="surface121526753">
<path style="fill-rule:nonzero;fill:rgb(87.450981%,94.117647%,99.607843%);fill-opacity:1;stroke-width:6;stroke-linecap:butt;stroke-linejoin:round;stroke:rgb(80.000001%,80.000001%,80.000001%);stroke-opacity:1;stroke-miterlimit:10;" d="M 86.000002 165.545827 C 42.136659 165.545827 6.454178 129.863346 6.454178 86.000002 C 6.454178 42.136659 42.136659 6.454178 86.000002 6.454178 C 129.863346 6.454178 165.545827 42.136659 165.545827 86.000002 C 165.545827 129.863346 129.863346 165.545827 86.000002 165.545827 Z M 86.000002 165.545827 " transform="matrix(0.448837,0,0,0.448837,1.4,1.4)"/>
<path style="fill-rule:nonzero;fill:rgb(27.843139%,53.333336%,78.039217%);fill-opacity:1;stroke-width:6;stroke-linecap:butt;stroke-linejoin:round;stroke:rgb(80.000001%,80.000001%,80.000001%);stroke-opacity:1;stroke-miterlimit:10;" d="M 86.000002 8.60383 C 43.320273 8.60383 8.60383 43.320273 8.60383 86.000002 C 8.60383 128.679731 43.320273 163.396175 86.000002 163.396175 C 128.679731 163.396175 163.396175 128.679731 163.396175 86.000002 C 163.396175 43.320273 128.679731 8.60383 86.000002 8.60383 M 86.000002 4.295823 C 131.116584 4.295823 167.704182 40.883421 167.704182 86.000002 C 167.704182 131.116584 131.116584 167.704182 86.000002 167.704182 C 40.883421 167.704182 4.295823 131.116584 4.295823 86.000002 C 4.295823 40.883421 40.883421 4.295823 86.000002 4.295823 Z M 86.000002 4.295823 " transform="matrix(0.448837,0,0,0.448837,1.4,1.4)"/>
<path style="fill-rule:nonzero;fill:rgb(100%,100%,100%);fill-opacity:1;stroke-width:6;stroke-linecap:butt;stroke-linejoin:round;stroke:rgb(80.000001%,80.000001%,80.000001%);stroke-opacity:1;stroke-miterlimit:10;" d="M 86.000002 152.647915 C 49.247046 152.647915 19.352089 122.752958 19.352089 86.000002 C 19.352089 49.247046 49.247046 19.352089 86.000002 19.352089 C 122.752958 19.352089 152.647915 49.247046 152.647915 86.000002 C 152.647915 122.752958 122.752958 152.647915 86.000002 152.647915 Z M 86.000002 152.647915 " transform="matrix(0.448837,0,0,0.448837,1.4,1.4)"/>
<path style="fill-rule:nonzero;fill:rgb(27.843139%,53.333336%,78.039217%);fill-opacity:1;stroke-width:6;stroke-linecap:butt;stroke-linejoin:round;stroke:rgb(80.000001%,80.000001%,80.000001%);stroke-opacity:1;stroke-miterlimit:10;" d="M 86.000002 21.501741 C 50.43066 21.501741 21.501741 50.43066 21.501741 86.000002 C 21.501741 121.569344 50.43066 150.498263 86.000002 150.498263 C 121.569344 150.498263 150.498263 121.569344 150.498263 86.000002 C 150.498263 50.43066 121.569344 21.501741 86.000002 21.501741 M 86.000002 17.202437 C 123.997494 17.202437 154.797567 48.002511 154.797567 86.000002 C 154.797567 123.997494 123.997494 154.797567 86.000002 154.797567 C 48.002511 154.797567 17.202437 123.997494 17.202437 86.000002 C 17.202437 48.002511 48.002511 17.202437 86.000002 17.202437 Z M 86.000002 17.202437 " transform="matrix(0.448837,0,0,0.448837,1.4,1.4)"/>
<path style="fill:none;stroke-width:6;stroke-linecap:round;stroke-linejoin:round;stroke:rgb(80.000001%,80.000001%,80.000001%);stroke-opacity:1;stroke-miterlimit:10;" d="M 107.496522 107.496522 L 86.000002 86.000002 L 114.545988 43.816347 " transform="matrix(0.448837,0,0,0.448837,1.4,1.4)"/>
<path style="fill-rule:nonzero;fill:rgb(27.843139%,53.333336%,78.039217%);fill-opacity:1;stroke-width:6;stroke-linecap:butt;stroke-linejoin:round;stroke:rgb(80.000001%,80.000001%,80.000001%);stroke-opacity:1;stroke-miterlimit:10;" d="M 92.448958 86.000002 C 92.448958 89.559547 89.559547 92.448958 86.000002 92.448958 C 82.440457 92.448958 79.551047 89.559547 79.551047 86.000002 C 79.551047 82.440457 82.440457 79.551047 86.000002 79.551047 C 89.559547 79.551047 92.448958 82.440457 92.448958 86.000002 Z M 92.448958 86.000002 " transform="matrix(0.448837,0,0,0.448837,1.4,1.4)"/>
<path style="fill-rule:nonzero;fill:rgb(59.607846%,80.000001%,99.215686%);fill-opacity:1;stroke-width:6;stroke-linecap:butt;stroke-linejoin:round;stroke:rgb(80.000001%,80.000001%,80.000001%);stroke-opacity:1;stroke-miterlimit:10;" d="M 90.299306 34.399653 C 90.299306 36.775584 88.375933 38.698957 86.000002 38.698957 C 83.624071 38.698957 81.700698 36.775584 81.700698 34.399653 C 81.700698 32.023722 83.624071 30.100349 86.000002 30.100349 C 88.375933 30.100349 90.299306 32.023722 90.299306 34.399653 Z M 90.299306 137.600352 C 90.299306 139.976283 88.375933 141.899656 86.000002 141.899656 C 83.624071 141.899656 81.700698 139.976283 81.700698 137.600352 C 81.700698 135.224421 83.624071 133.301048 86.000002 133.301048 C 88.375933 133.301048 90.299306 135.224421 90.299306 137.600352 Z M 90.299306 137.600352 " transform="matrix(0.448837,0,0,0.448837,1.4,1.4)"/>
<path style="fill-rule:nonzero;fill:rgb(59.607846%,80.000001%,99.215686%);fill-opacity:1;stroke-width:6;stroke-linecap:butt;stroke-linejoin:round;stroke:rgb(80.000001%,80.000001%,80.000001%);stroke-opacity:1;stroke-miterlimit:10;" d="M 141.899656 86.000002 C 141.899656 88.375933 139.976283 90.299306 137.600352 90.299306 C 135.224421 90.299306 133.301048 88.375933 133.301048 86.000002 C 133.301048 83.624071 135.224421 81.700698 137.600352 81.700698 C 139.976283 81.700698 141.899656 83.624071 141.899656 86.000002 Z M 141.899656 86.000002 " transform="matrix(0.448837,0,0,0.448837,1.4,1.4)"/>
<path style="fill-rule:nonzero;fill:rgb(59.607846%,80.000001%,99.215686%);fill-opacity:1;stroke-width:6;stroke-linecap:butt;stroke-linejoin:round;stroke:rgb(80.000001%,80.000001%,80.000001%);stroke-opacity:1;stroke-miterlimit:10;" d="M 38.698957 86.000002 C 38.698957 88.375933 36.775584 90.299306 34.399653 90.299306 C 32.023722 90.299306 30.100349 88.375933 30.100349 86.000002 C 30.100349 83.624071 32.023722 81.700698 34.399653 81.700698 C 36.775584 81.700698 38.698957 83.624071 38.698957 86.000002 Z M 38.698957 86.000002 " transform="matrix(0.448837,0,0,0.448837,1.4,1.4)"/>
<path style=" stroke:none;fill-rule:nonzero;fill:rgb(87.450981%,94.117647%,99.607843%);fill-opacity:1;" d="M 40 75.703125 C 20.3125 75.703125 4.296875 59.6875 4.296875 40 C 4.296875 20.3125 20.3125 4.296875 40 4.296875 C 59.6875 4.296875 75.703125 20.3125 75.703125 40 C 75.703125 59.6875 59.6875 75.703125 40 75.703125 Z M 40 75.703125 "/>
<path style=" stroke:none;fill-rule:nonzero;fill:rgb(27.843139%,53.333336%,78.039217%);fill-opacity:1;" d="M 40 5.261719 C 59.15625 5.261719 74.738281 20.84375 74.738281 40 C 74.738281 59.15625 59.15625 74.738281 40 74.738281 C 20.84375 74.738281 5.261719 59.15625 5.261719 40 C 5.261719 20.84375 20.84375 5.261719 40 5.261719 M 40 3.328125 C 19.75 3.328125 3.328125 19.75 3.328125 40 C 3.328125 60.25 19.75 76.671875 40 76.671875 C 60.25 76.671875 76.671875 60.25 76.671875 40 C 76.671875 19.75 60.25 3.328125 40 3.328125 Z M 40 3.328125 "/>
<path style=" stroke:none;fill-rule:nonzero;fill:rgb(100%,100%,100%);fill-opacity:1;" d="M 40 69.914062 C 23.503906 69.914062 10.085938 56.496094 10.085938 40 C 10.085938 23.503906 23.503906 10.085938 40 10.085938 C 56.496094 10.085938 69.914062 23.503906 69.914062 40 C 69.914062 56.496094 56.496094 69.914062 40 69.914062 Z M 40 69.914062 "/>
<path style=" stroke:none;fill-rule:nonzero;fill:rgb(27.843139%,53.333336%,78.039217%);fill-opacity:1;" d="M 40 11.050781 C 55.964844 11.050781 68.949219 24.035156 68.949219 40 C 68.949219 55.964844 55.964844 68.949219 40 68.949219 C 24.035156 68.949219 11.050781 55.964844 11.050781 40 C 11.050781 24.035156 24.035156 11.050781 40 11.050781 M 40 9.121094 C 22.945312 9.121094 9.121094 22.945312 9.121094 40 C 9.121094 57.054688 22.945312 70.878906 40 70.878906 C 57.054688 70.878906 70.878906 57.054688 70.878906 40 C 70.878906 22.945312 57.054688 9.121094 40 9.121094 Z M 40 9.121094 "/>
<path style="fill:none;stroke-width:8.6;stroke-linecap:round;stroke-linejoin:miter;stroke:rgb(27.843139%,53.333336%,78.039217%);stroke-opacity:1;stroke-miterlimit:10;" d="M 114.545988 43.816347 L 86.000002 86.000002 L 107.496522 107.496522 " transform="matrix(0.448837,0,0,0.448837,1.4,1.4)"/>
<path style=" stroke:none;fill-rule:nonzero;fill:rgb(27.843139%,53.333336%,78.039217%);fill-opacity:1;" d="M 40 37.105469 C 38.402344 37.105469 37.105469 38.402344 37.105469 40 C 37.105469 41.597656 38.402344 42.894531 40 42.894531 C 41.597656 42.894531 42.894531 41.597656 42.894531 40 C 42.894531 38.402344 41.597656 37.105469 40 37.105469 Z M 40 37.105469 "/>
<path style=" stroke:none;fill-rule:nonzero;fill:rgb(59.607846%,80.000001%,99.215686%);fill-opacity:1;" d="M 40 14.910156 C 38.933594 14.910156 38.070312 15.773438 38.070312 16.839844 C 38.070312 17.90625 38.933594 18.769531 40 18.769531 C 41.066406 18.769531 41.929688 17.90625 41.929688 16.839844 C 41.929688 15.773438 41.066406 14.910156 40 14.910156 Z M 40 61.230469 C 38.933594 61.230469 38.070312 62.09375 38.070312 63.160156 C 38.070312 64.226562 38.933594 65.089844 40 65.089844 C 41.066406 65.089844 41.929688 64.226562 41.929688 63.160156 C 41.929688 62.09375 41.066406 61.230469 40 61.230469 Z M 40 61.230469 "/>
<path style=" stroke:none;fill-rule:nonzero;fill:rgb(59.607846%,80.000001%,99.215686%);fill-opacity:1;" d="M 63.160156 38.070312 C 62.09375 38.070312 61.230469 38.933594 61.230469 40 C 61.230469 41.066406 62.09375 41.929688 63.160156 41.929688 C 64.226562 41.929688 65.089844 41.066406 65.089844 40 C 65.089844 38.933594 64.226562 38.070312 63.160156 38.070312 Z M 63.160156 38.070312 "/>
<path style=" stroke:none;fill-rule:nonzero;fill:rgb(59.607846%,80.000001%,99.215686%);fill-opacity:1;" d="M 16.839844 38.070312 C 15.773438 38.070312 14.910156 38.933594 14.910156 40 C 14.910156 41.066406 15.773438 41.929688 16.839844 41.929688 C 17.90625 41.929688 18.769531 41.066406 18.769531 40 C 18.769531 38.933594 17.90625 38.070312 16.839844 38.070312 Z M 16.839844 38.070312 "/>
</g>
</svg>
