<svg xmlns="http://www.w3.org/2000/svg" version="1.1" xmlns:xlink="http://www.w3.org/1999/xlink" xmlns:svgjs="http://svgjs.dev/svgjs" viewBox="0 0 1422 800"><defs><filter id="llleaves-blur-2" x="-100%" y="-100%" width="400%" height="400%"><feGaussianBlur in="SourceGraphic" stdDeviation="2"></feGaussianBlur></filter><filter id="llleaves-blur-3" x="-100%" y="-100%" width="400%" height="400%"><feGaussianBlur in="SourceGraphic" stdDeviation="4"></feGaussianBlur></filter><filter id="llleaves-blur-4" x="-100%" y="-100%" width="400%" height="400%"><feGaussianBlur in="SourceGraphic" stdDeviation="12"></feGaussianBlur></filter></defs><g fill="none" stroke-width="3" stroke="hsl(205, 69%, 50%)"><path d="M764 697H814C842 697 864 719 864 747H814C786 747 764 725 764 697Z " transform="matrix(0.03139015215933865,0.22335253825559115,-0.22335253825559115,0.03139015215933865,949.7089487628351,517.5273440009063)" filter="url(#llleaves-blur-3)" opacity="0.34"></path><path d="M1056 439H1106C1134 439 1156 461 1156 489H1106C1078 489 1056 467 1056 439Z " transform="matrix(-0.16224187334244655,0.24053346887589896,-0.24053346887589896,-0.16224187334244655,1397.047041475163,273.2502126541509)" filter="url(#llleaves-blur-3)" opacity="0.44"></path><path d="M1318 37H1368C1396 37 1418 59 1418 87H1368C1340 87 1318 65 1318 37Z " transform="matrix(-0.3572869032641006,0.05658868620877136,-0.05658868620877136,-0.3572869032641006,1860.2769822102337,6.738465268775016)" filter="url(#llleaves-blur-2)" opacity="0.55"></path><path d="M1298 163H1348C1376 163 1398 185 1398 213H1348C1320 213 1298 191 1298 163Z " transform="matrix(-0.33638546988703416,0.09645698132641567,-0.09645698132641567,-0.33638546988703416,1819.5815258970883,121.2164575107541)" filter="url(#llleaves-blur-2)" opacity="0.54"></path><path d="M774 403H824C852 403 874 425 874 453H824C796 453 774 431 774 403Z " transform="matrix(0.03139015215933865,0.22335253825559115,-0.22335253825559115,0.03139015215933865,893.7294009940979,230.52252335319596)" filter="url(#llleaves-blur-3)" opacity="0.34"></path><path d="M475 462H525C553 462 575 484 575 512H525C497 512 475 490 475 462Z " transform="matrix(0.07102372230588792,0.19513607328104257,-0.19513607328104257,0.07102372230588792,582.7438134772766,349.9650087644852)" filter="url(#llleaves-blur-3)" opacity="0.32"></path><path d="M1312 422H1362C1390 422 1412 444 1412 472H1362C1334 472 1312 450 1312 422Z " transform="matrix(-0.33638546988703416,0.09645698132641567,-0.09645698132641567,-0.33638546988703416,1863.2732806390484,465.98989647292615)" filter="url(#llleaves-blur-2)" opacity="0.54"></path><path d="M35 162H85C113 162 135 184 135 212H85C57 212 35 190 35 162Z " transform="matrix(-0.32752557076528593,0.11277609807294639,-0.11277609807294639,-0.32752557076528593,133.92880385469027,238.66131339690804)" filter="url(#llleaves-blur-2)" opacity="0.53"></path><path d="M623 704H673C701 704 723 726 723 754H673C645 754 623 732 623 704Z " transform="matrix(0.0709561208031913,0.1949503396788624,-0.1949503396788624,0.0709561208031913,767.365328325343,546.0714093305992)" filter="url(#llleaves-blur-3)" opacity="0.32"></path><path d="M257 363H307C335 363 357 385 357 413H307C279 413 257 391 257 363Z " transform="matrix(-0.03029529457373438,0.24673537414603194,-0.24673537414603194,-0.03029529457373438,412.0339806027969,324.0068144317771)" filter="url(#llleaves-blur-3)" opacity="0.38"></path><path d="M1025 297H1075C1103 297 1125 319 1125 347H1075C1047 347 1025 325 1025 297Z " transform="matrix(-0.14144765862232545,0.24499453134552576,-0.24499453134552576,-0.14144765862232545,1305.944472112259,104.17702487994856)" filter="url(#llleaves-blur-3)" opacity="0.43"></path><path d="M156 513H206C234 513 256 535 256 563H206C178 563 156 541 156 513Z " transform="matrix(-0.1719957925981693,0.23673189932922997,-0.23673189932922997,-0.1719957925981693,368.7928951143486,581.7669651559937)" filter="url(#llleaves-blur-3)" opacity="0.45"></path><path d="M560 570H610C638 570 660 592 660 620H610C582 620 560 598 560 570Z " transform="matrix(0.07345528593550957,0.1913575621345523,-0.1913575621345523,0.07345528593550957,679.0500250493978,434.5659919662949)" filter="url(#llleaves-blur-3)" opacity="0.31"></path><path d="M1040 705H1090C1118 705 1140 727 1140 755H1090C1062 755 1040 733 1040 705Z " transform="matrix(-0.14144765862232545,0.24499453134552576,-0.24499453134552576,-0.14144765862232545,1423.0239557805687,566.2127516276745)" filter="url(#llleaves-blur-3)" opacity="0.43"></path><path d="M172 49H222C250 49 272 71 272 99H222C194 99 172 77 172 49Z " transform="matrix(-0.1212225819204122,0.248543125397582,-0.248543125397582,-0.1212225819204122,267.3036044657526,27.793897223847303)" filter="url(#llleaves-blur-3)" opacity="0.42"></path><path d="M1297 570H1347C1375 570 1397 592 1397 620H1347C1319 620 1297 598 1297 570Z " transform="matrix(-0.33638546988703416,0.09645698132641567,-0.09645698132641567,-0.33638546988703416,1857.5031318270521,665.2218007361034)" filter="url(#llleaves-blur-2)" opacity="0.54"></path><path d="M291 524H341C369 524 391 546 391 574H341C313 574 291 552 291 524Z " transform="matrix(-0.004183576579409365,0.23967694171370676,-0.23967694171370676,-0.004183576579409365,474.0092406144036,469.56694641772174)" filter="url(#llleaves-blur-3)" opacity="0.37"></path><path d="M913 391H963C991 391 1013 413 1013 441H963C935 441 913 419 913 391Z " transform="matrix(-0.05303249178906329,0.2494982576514963,-0.2494982576514963,-0.05303249178906329,1117.8615647758904,197.79469446585938)" filter="url(#llleaves-blur-3)" opacity="0.39"></path><path d="M18 437H68C96 437 118 459 118 487H68C40 487 18 465 18 437Z " transform="matrix(-0.32752557076528593,0.11277609807294639,-0.11277609807294639,-0.32752557076528593,142.37429612174066,605.6480390246018)" filter="url(#llleaves-blur-2)" opacity="0.53"></path><path d="M623 400H673C701 400 723 422 723 450H673C645 450 623 428 623 400Z " transform="matrix(0.0709561208031913,0.1949503396788624,-0.1949503396788624,0.0709561208031913,708.1004250629687,263.6420700547693)" filter="url(#llleaves-blur-3)" opacity="0.32"></path><path d="M383 372H433C461 372 483 394 483 422H433C405 422 383 400 383 372Z " transform="matrix(0.04554597676950556,0.21427697367542192,-0.21427697367542192,0.04554597676950556,498.3465506079466,286.1363176210486)" filter="url(#llleaves-blur-3)" opacity="0.33"></path><path d="M474 163H524C552 163 574 185 574 213H524C496 213 474 191 474 163Z " transform="matrix(0.07102372230588792,0.19513607328104257,-0.19513607328104257,0.07102372230588792,523.4691512885507,72.39623780722677)" filter="url(#llleaves-blur-3)" opacity="0.32"></path><path d="M857 57H907C935 57 957 79 957 107H907C879 107 857 85 857 57Z " transform="matrix(0.012177125569893173,0.23235339746276132,-0.23235339746276132,0.012177125569893173,915.0083257000533,-129.74305579545577)" filter="url(#llleaves-blur-3)" opacity="0.36"></path><path d="M980 558H1030C1058 558 1080 580 1080 608H1030C1002 608 980 586 980 558Z " transform="matrix(-0.09190039108583473,0.2524942493473798,-0.2524942493473798,-0.09190039108583473,1271.8615501879322,376.50885117524047)" filter="url(#llleaves-blur-3)" opacity="0.41"></path><path d="M619 196H669C697 196 719 218 719 246H669C641 246 619 224 619 196Z " transform="matrix(0.0709561208031913,0.1949503396788624,-0.1949503396788624,0.0709561208031913,664.6143802516937,74.89692005733579)" filter="url(#llleaves-blur-3)" opacity="0.32"></path><path d="M1181 707H1231C1259 707 1281 729 1281 757H1231C1203 757 1181 735 1181 707Z " transform="matrix(-0.2585978480294472,0.18788233424406073,-0.18788233424406073,-0.2585978480294472,1686.863819590902,690.0104713031166)" filter="url(#llleaves-blur-2)" opacity="0.49"></path><path d="M1092 51H1142C1170 51 1192 73 1192 101H1142C1114 101 1092 79 1092 51Z " transform="matrix(-0.17183679681073233,0.23651306040197065,-0.23651306040197065,-0.17183679681073233,1356.2126145484062,-181.03831842143478)" filter="url(#llleaves-blur-3)" opacity="0.45"></path><path d="M341 220H391C419 220 441 242 441 270H391C363 270 341 248 341 220Z " transform="matrix(0.03130300565845081,0.22273245868176206,-0.22273245868176206,0.03130300565845081,433.3299771645775,150.2423722691106)" filter="url(#llleaves-blur-3)" opacity="0.34"></path><path d="M1205 48H1255C1283 48 1305 70 1305 98H1255C1227 98 1205 76 1205 48Z " transform="matrix(-0.2766108312261473,0.17284563083938304,-0.17284563083938304,-0.2766108312261473,1614.76432424009,-123.72867602391696)" filter="url(#llleaves-blur-2)" opacity="0.50"></path><path d="M25 712H75C103 712 125 734 125 762H75C47 762 25 740 25 712Z " transform="matrix(-0.32752557076528593,0.11277609807294639,-0.11277609807294639,-0.32752557076528593,182.68040208715794,969.9281382985448)" filter="url(#llleaves-blur-2)" opacity="0.53"></path><path d="M843 545H893C921 545 943 567 943 595H893C865 595 843 573 843 545Z " transform="matrix(-0.012681308141842993,0.24197377403370776,-0.24197377403370776,-0.012681308141842993,1042.2494593698793,361.1457654287495)" filter="url(#llleaves-blur-3)" opacity="0.37"></path><path d="M606 45H656C684 45 706 67 706 95H656C628 95 606 73 606 45Z " transform="matrix(0.08684987524376821,0.17806863285298055,-0.17806863285298055,0.08684987524376821,611.4912861397967,-52.892514418619015)" filter="url(#llleaves-blur-4)" opacity="0.30"></path><path d="M406 590H456C484 590 506 612 506 640H456C428 640 406 618 406 590Z " transform="matrix(0.05545025362112508,0.20694316380661895,-0.20694316380661895,0.05545025362112508,557.9847300898376,486.5320113271898)" filter="url(#llleaves-blur-3)" opacity="0.33"></path><path d="M511 303H561C589 303 611 325 611 353H561C533 353 511 331 511 303Z " transform="matrix(0.07376770369737269,0.19217143822959806,-0.19217143822959806,0.07376770369737269,582.6485499650821,195.99601634045723)" filter="url(#llleaves-blur-3)" opacity="0.31"></path><path d="M1172 331H1222C1250 331 1272 353 1272 381H1222C1194 381 1172 359 1172 331Z " transform="matrix(-0.2585978480294472,0.18788233424406073,-0.18788233424406073,-0.2585978480294472,1604.89268128287,218.468621452241)" filter="url(#llleaves-blur-2)" opacity="0.49"></path><path d="M460 35H510C538 35 560 57 560 85H510C482 85 460 63 460 35Z " transform="matrix(0.08443536517327448,0.18107222494983885,-0.18107222494983885,0.08443536517327448,477.80229725862034,-37.41295663481429)" filter="url(#llleaves-blur-4)" opacity="0.30"></path><path d="M1310 706H1360C1388 706 1410 728 1410 756H1360C1332 756 1310 734 1310 706Z " transform="matrix(-0.33638546988703416,0.09645698132641567,-0.09645698132641567,-0.33638546988703416,1887.9942923959761,845.7162838834968)" filter="url(#llleaves-blur-2)" opacity="0.54"></path><path d="M1193 468H1243C1271 468 1293 490 1293 518H1243C1215 518 1193 496 1193 468Z " transform="matrix(-0.2585978480294472,0.18788233424406073,-0.18788233424406073,-0.2585978480294472,1657.0631158829246,386.95099761315)" filter="url(#llleaves-blur-2)" opacity="0.49"></path><path d="M308 702H358C386 702 408 724 408 752H358C330 752 308 730 308 702Z " transform="matrix(0.016170348332602988,0.231246754759333,-0.231246754759333,0.016170348332602988,520.3274060069631,632.4578185583564)" filter="url(#llleaves-blur-3)" opacity="0.35"></path><path d="M23 37H73C101 37 123 59 123 87H73C45 87 23 65 23 37Z " transform="matrix(-0.3264133694999943,0.11239313646577077,-0.11239313646577077,-0.3264133694999943,103.79655043437737,74.03292994699837)" filter="url(#llleaves-blur-2)" opacity="0.53"></path><path d="M24 579H74C102 579 124 601 124 629H74C46 629 24 607 24 579Z " transform="matrix(-0.32752557076528593,0.11277609807294639,-0.11277609807294639,-0.32752557076528593,166.35365547269078,793.4800134848348)" filter="url(#llleaves-blur-2)" opacity="0.53"></path><path d="M470 711H520C548 711 570 733 570 761H520C492 761 470 739 470 711Z " transform="matrix(0.07102372230588792,0.19513607328104257,-0.19513607328104257,0.07102372230588792,626.6878143357854,582.2557822767244)" filter="url(#llleaves-blur-3)" opacity="0.32"></path><path d="M975 35H1025C1053 35 1075 57 1075 85H1025C997 85 975 63 975 35Z " transform="matrix(-0.0674628420386776,0.25177475411133826,-0.25177475411133826,-0.0674628420386776,1109.255898336325,-194.02135244180104)" filter="url(#llleaves-blur-3)" opacity="0.40"></path><path d="M738 74H788C816 74 838 96 838 124H788C760 124 738 102 738 74Z " transform="matrix(0.05874511062266547,0.2048685472905156,-0.2048685472905156,0.05874511062266547,761.9908390111007,-68.25218121657016)" filter="url(#llleaves-blur-3)" opacity="0.32"></path><path d="M135 350H185C213 350 235 372 235 400H185C157 400 135 378 135 350Z " transform="matrix(-0.1719957925981693,0.23673189932922997,-0.23673189932922997,-0.1719957925981693,305.5936838791226,395.7030208484059)" filter="url(#llleaves-blur-3)" opacity="0.45"></path><path d="M699 547H749C777 547 799 569 799 597H749C721 597 699 575 699 547Z " transform="matrix(0.052390918345660564,0.21012849639120856,-0.21012849639120856,0.052390918345660564,829.9527020948715,384.6461509092669)" filter="url(#llleaves-blur-3)" opacity="0.33"></path><path d="M317 59H367C395 59 417 81 417 109H367C339 109 317 87 317 59Z " transform="matrix(0.03140565369796742,0.22346283743420065,-0.22346283743420065,0.03140565369796742,374.2450034373188,-0.6489362489808883)" filter="url(#llleaves-blur-3)" opacity="0.34"></path><path d="M902 700H952C980 700 1002 722 1002 750H952C924 750 902 728 902 700Z " transform="matrix(-0.05303249178906329,0.2494982576514963,-0.2494982576514963,-0.05303249178906329,1183.3731689805231,525.9262152628464)" filter="url(#llleaves-blur-3)" opacity="0.39"></path><path d="M169 684H219C247 684 269 706 269 734H219C191 734 169 712 169 684Z " transform="matrix(-0.13167458566976173,0.24764387808263394,-0.24764387808263394,-0.13167458566976173,423.4162438222653,748.1232719397642)" filter="url(#llleaves-blur-3)" opacity="0.43"></path><path d="M991 168H1041C1069 168 1091 190 1091 218H1041C1013 218 991 196 991 168Z " transform="matrix(-0.11653330295246711,0.24990647465140278,-0.24990647465140278,-0.11653330295246711,1210.543117981239,-44.6617126422841)" filter="url(#llleaves-blur-3)" opacity="0.42"></path><path d="M1130 582H1180C1208 582 1230 604 1230 632H1180C1152 632 1130 610 1130 582Z " transform="matrix(-0.21173293934647597,0.21925587712125605,-0.21925587712125605,-0.21173293934647597,1562.933185841444,476.79995918022877)" filter="url(#llleaves-blur-2)" opacity="0.47"></path></g></svg>